<svg width="741" height="552" viewBox="0 0 741 552" fill="none" xmlns="http://www.w3.org/2000/svg">
<g clip-path="url(#clip0_537_1977)">
<path opacity="0.05" d="M650.719 520.154C650.719 520.154 719.818 406.751 695.076 320.192C693.998 316.431 692.725 312.693 691.256 309C688.584 303.393 687.265 297.924 686.966 292.546C686.691 287.18 687.437 281.928 688.893 276.78C693.608 264.259 699.917 251.611 708.13 240.363C710.871 236.602 713.819 233.024 717.008 229.619C749.768 192.353 751.604 133.06 706.088 102.56C683.342 88.4446 656.787 95.4964 634.889 106C630.519 108.098 626.309 110.334 622.386 112.558C606.545 118.716 589.236 124.059 571.445 127.717C565.515 128.932 559.55 129.941 553.608 130.606C496.783 136.443 445.818 107.639 403.4 76.0953C399.614 74.0772 395.714 72.2999 391.631 70.7634C371.247 63.1039 346.723 62.0834 313.343 74.7537C206.517 115.299 238.807 216.925 112.48 208.096C-13.846 199.267 -14.7752 318.575 18.4783 374.244C51.7089 429.913 87.8071 486.489 64.0742 512.127C40.3299 537.766 249.75 519.787 265.889 521.553C282.04 523.364 650.719 520.154 650.719 520.154Z" fill="url(#paint0_linear_537_1977)"/>
<path d="M155.953 479.884C157.57 490.8 155.276 504.869 154.496 509.135C154.347 509.949 154.255 510.407 154.255 510.407L145.951 496.533C143.439 490.777 133.367 468.59 130.901 454.555C128.401 440.543 120.795 429.145 120.589 422.128C120.371 415.11 131.865 410.994 134.881 396.592C137.887 382.213 143.932 358.742 147.671 359.43C147.912 359.464 148.13 359.613 148.348 359.854L148.36 359.877C151.732 363.397 154.152 386.318 157.49 392.304C161.046 398.668 170.624 406.579 163.214 415.73C155.781 424.88 159.75 435.83 166.563 445.405C173.354 454.979 154.06 466.881 155.953 479.884Z" fill="#6B76D1"/>
<path opacity="0.3" d="M155.954 479.884C157.571 490.8 155.277 504.869 154.497 509.135C137.509 437.745 147.672 359.464 147.672 359.464L148.349 359.888L148.372 359.911C151.744 363.431 154.164 386.353 157.491 392.338C161.047 398.702 170.625 406.614 163.215 415.752C155.782 424.903 159.751 435.853 166.564 445.427C173.355 454.979 154.061 466.881 155.954 479.884Z" fill="url(#paint1_linear_537_1977)"/>
<path d="M138.254 494.16C135.306 494.848 131.509 494.354 126.783 492.233C123.995 490.972 123.101 475.79 117.985 473.52C112.903 471.261 109.21 464.175 107.512 456.802C105.803 449.441 90.8108 446.322 87.9661 438.399C85.1099 430.452 93.6326 424.799 93.0476 417.438C92.4855 410.054 86.257 399.573 90.7879 394.769C95.3073 389.953 103.245 406.671 107.489 410.065C111.733 413.471 119.946 417.151 117.675 423.389C115.392 429.604 118.535 439.832 133.252 445.496C145.721 450.266 154.53 490.387 138.254 494.16Z" fill="#5866D5"/>
<path d="M200.288 436.873C195 444.051 184.826 437.263 180.272 444.441C175.752 451.619 179.893 462.191 175.752 468.991C171.6 475.79 166.324 477.304 161.013 479.563C155.805 481.799 154.979 491.35 154.268 493.793C154.245 493.827 154.245 493.861 154.233 493.919C154.233 493.919 148.188 481.455 150.827 473.509C153.488 465.574 151.205 454.623 152.719 447.423C154.233 440.256 160.279 436.472 162.148 429.283C164.041 422.105 172.346 416.819 176.498 407.76C180.65 398.69 196.514 388.497 202.181 390.377C202.25 390.412 202.364 390.435 202.433 390.503C207.664 392.705 202.101 406.728 198.029 411.923C193.865 417.232 205.576 429.696 200.288 436.873Z" fill="url(#paint2_linear_537_1977)"/>
<path opacity="0.3" d="M200.285 436.873C194.997 444.051 184.823 437.263 180.269 444.441C175.75 451.619 179.891 462.191 175.75 468.991C171.597 475.79 166.321 477.304 161.01 479.563C155.802 481.799 154.976 491.35 154.265 493.793C151.914 477.155 164.015 452.789 174.339 430.911C184.72 408.93 199.001 393.932 202.43 390.503C207.661 392.705 202.098 406.728 198.026 411.923C193.862 417.232 205.573 429.696 200.285 436.873Z" fill="url(#paint3_linear_537_1977)"/>
<path d="M138.255 494.16C132.21 469.449 122.85 457.616 116.507 448.156C109.624 437.883 90.8008 394.735 90.8008 394.735C95.3202 389.919 103.258 406.637 107.502 410.031C111.746 413.436 119.959 417.117 117.688 423.355C115.405 429.569 118.548 439.797 133.265 445.462C145.722 450.278 154.532 490.387 138.255 494.16Z" fill="#5866D5"/>
<path opacity="0.046" d="M467.039 71.0959C469.883 80.2461 481.343 87.0457 489.12 91.4029C503.963 99.7275 522.419 104.429 539.304 101.103C549.455 99.0968 559.469 95.1639 569.047 90.9099C583.305 84.5804 604.744 80.464 611.982 64.5716C618.084 51.1215 597.54 48.7709 589.465 47.3835C558.643 42.0401 523.75 37.6026 492.687 44.6315C483.327 46.7413 472.143 51.0068 467.865 60.3978C466.109 64.262 466.029 67.828 467.039 71.0959Z" fill="url(#paint4_linear_537_1977)"/>
<path d="M630.049 471.284C629.865 471.663 629.647 471.88 629.418 471.903C629.349 471.903 629.292 471.926 629.2 471.926C622.49 471.777 610.686 437.183 593.664 439.178L593.113 439.236C593.113 439.236 609.287 431.53 617.431 435.75C630.083 442.286 632.068 467.076 630.049 471.284Z" fill="url(#paint5_linear_537_1977)"/>
<path opacity="0.3" d="M630.049 471.284C629.866 471.663 629.648 471.88 629.418 471.903C629.349 471.903 629.292 471.926 629.2 471.926C622.49 471.777 610.687 437.183 593.664 439.178C593.664 439.178 612.43 431.737 621.24 446.975C626.86 456.619 629.12 465.838 630.049 471.284Z" fill="url(#paint6_linear_537_1977)"/>
<path d="M630.451 492.807H630.429C630.211 492.784 630.027 492.589 630.05 492.371C630.084 491.82 633.216 441.85 606.122 438.112C605.904 438.078 605.744 437.871 605.778 437.642C605.813 437.424 605.996 437.24 606.248 437.298C634.099 441.128 630.933 491.878 630.899 492.428C630.853 492.646 630.669 492.807 630.451 492.807Z" fill="#627AF4"/>
<path d="M674.546 451.034C674.546 451.034 674.523 451.034 674.489 451.012C657.294 448.409 645.365 483.255 638.585 483.702C638.471 483.725 638.368 483.725 638.276 483.702C638.15 483.679 638.023 483.633 637.932 483.519C635.488 481.042 637.071 454.394 650.286 447.56C658.189 443.478 673.674 450.622 674.546 451.034Z" fill="url(#paint7_linear_537_1977)"/>
<path opacity="0.3" d="M674.487 451.023C657.292 448.42 645.363 483.266 638.584 483.714C638.469 483.737 638.366 483.737 638.274 483.714C638.148 483.691 638.021 483.645 637.93 483.53C639.1 477.499 641.222 465.23 648.334 456.504C657.912 444.751 673.363 450.633 674.487 451.023Z" fill="url(#paint8_linear_537_1977)"/>
<path d="M637.254 504.64C637.036 504.64 636.853 504.479 636.841 504.261C636.807 503.711 633.618 452.961 661.48 449.131C661.721 449.097 661.916 449.257 661.951 449.475C661.985 449.693 661.825 449.911 661.607 449.945C634.501 453.683 637.656 503.654 637.679 504.204C637.702 504.422 637.518 504.617 637.3 504.64H637.254Z" fill="#627AF4"/>
<path d="M631.564 448.627V448.661C631.541 448.776 631.529 448.821 631.529 448.821C631.529 448.821 631.461 448.764 631.311 448.638C629.924 447.411 622.078 439.832 618.304 422.334C613.062 398.117 603.713 392.567 603.128 392.246C603.105 392.223 603.094 392.223 603.094 392.223L602.543 391.948L603.094 391.834C616.17 389.403 626.058 395.767 629.832 410.948C634.03 427.849 631.851 446.482 631.564 448.627Z" fill="url(#paint9_linear_537_1977)"/>
<path opacity="0.3" d="M631.324 448.672C629.936 447.446 622.09 439.866 618.316 422.369C613.074 398.14 603.726 392.602 603.141 392.281C604.012 392.43 621.356 395.893 626.093 415.901C629.661 431.003 630.923 443.26 631.324 448.672Z" fill="url(#paint10_linear_537_1977)"/>
<path d="M633.328 502.163C633.088 502.163 632.915 501.98 632.915 501.75V501.452C633.225 491.408 635.267 406.935 611.66 396.558C611.465 396.466 611.351 396.225 611.442 396.007C611.534 395.789 611.775 395.709 611.993 395.789C635.6 406.155 634.246 484.986 633.741 501.464V501.739C633.741 501.98 633.558 502.163 633.328 502.163Z" fill="#627AF4"/>
<path d="M665.495 403.38L665.381 403.438L664.922 403.655C664.922 403.655 655.16 408.758 649.746 433.778C645.685 452.548 636.956 459.909 636.52 460.219C636.497 460.162 636.486 459.967 636.452 459.623V459.6C636.027 456.103 634.226 438.456 638.195 422.38C642.003 407.015 652.109 400.697 665.392 403.357H665.484V403.38H665.495Z" fill="url(#paint11_linear_537_1977)"/>
<path opacity="0.3" d="M665.405 403.38C665.405 403.38 665.405 403.403 665.37 403.438L664.912 403.655C664.912 403.655 655.15 408.758 649.736 433.778C645.675 452.548 636.946 459.909 636.51 460.219C636.487 460.162 636.476 459.967 636.441 459.623V459.6C639.171 435.177 643.507 423.091 647.43 415.58C652.294 406.35 665.405 403.38 665.405 403.38Z" fill="url(#paint12_linear_537_1977)"/>
<path d="M634.547 503.126C634.329 503.126 634.134 502.943 634.134 502.714C633.973 475.79 635.774 416.119 656.066 407.21C656.284 407.118 656.525 407.21 656.616 407.428C656.708 407.646 656.616 407.887 656.399 407.978C636.566 416.704 634.799 475.985 634.96 502.714C634.96 502.943 634.776 503.126 634.547 503.126Z" fill="#627AF4"/>
<path d="M332.383 445.622H420.673V480.021H332.383V445.622Z" fill="#1A2645"/>
<path d="M590.922 186.723V436.53C590.922 442.561 586.024 447.468 579.99 447.468H173.045C167.012 447.468 162.137 442.561 162.137 436.53V186.723C162.137 180.669 167.023 175.784 173.045 175.784H580.036C586.058 175.784 590.922 180.692 590.922 186.723Z" fill="#263764"/>
<path d="M590.921 186.723V422.781H162.113V186.723C162.113 180.669 167 175.784 173.022 175.784H580.024C586.058 175.784 590.921 180.692 590.921 186.723Z" fill="#1A2645"/>
<path d="M172.645 186.746H580.381V411.258H172.645V186.746Z" fill="white"/>
<path d="M448.515 487.268H304.535V486.592C304.535 482.67 307.701 479.505 311.624 479.505H441.438C445.349 479.505 448.526 482.682 448.526 486.592V487.268H448.515Z" fill="#1A2645"/>
<path d="M173.023 208.796H579.991V389.162H173.023V208.796Z" fill="#E4F5FB"/>
<path d="M292.74 261.518C311.173 261.518 325.076 271.884 329.481 288.671H308.742C305.541 282.054 299.691 278.741 292.534 278.741C280.948 278.741 273.011 287.363 273.011 301.054C273.011 314.745 280.948 323.368 292.534 323.368C299.714 323.368 305.553 320.054 308.742 313.438H329.492C325.087 330.225 311.162 340.487 292.752 340.487C269.913 340.487 253.809 324.262 253.809 301.077C253.797 277.869 269.902 261.518 292.74 261.518Z" fill="url(#paint13_linear_537_1977)"/>
<path d="M372.749 262.413C391.733 262.413 401.219 273.351 401.219 286.813C401.219 296.525 395.92 305.698 384.002 309.23L401.873 339.925H380.583L364.479 310.675H359.959V339.925H341.09V262.424H372.749V262.413ZM371.636 278.087H359.948V297.293H371.636C378.702 297.293 382.006 293.647 382.006 287.581C382.017 281.848 378.702 278.087 371.636 278.087Z" fill="url(#paint14_linear_537_1977)"/>
<path d="M413.023 262.413H435.322L457.047 316.064L478.555 262.413H500.716V339.914H481.847V293.441L464.526 339.914H449.305L431.869 293.326V339.914H413V262.413H413.023Z" fill="url(#paint15_linear_537_1977)"/>
<path d="M289.658 248.422C308.091 248.422 321.994 258.788 326.398 275.575H305.648C302.448 268.958 296.598 265.645 289.44 265.645C277.854 265.645 269.917 274.267 269.917 287.958C269.917 301.649 277.854 310.272 289.44 310.272C296.621 310.272 302.459 306.958 305.648 300.342H326.398C321.994 317.129 308.08 327.391 289.658 327.391C266.82 327.391 250.715 311.166 250.715 287.981C250.692 264.75 266.808 248.422 289.658 248.422ZM369.631 249.305C388.615 249.305 398.102 260.244 398.102 273.706C398.102 283.418 392.802 292.591 380.884 296.122L398.755 326.818H377.466L361.361 297.567H356.842V326.818H337.972V249.317H369.631V249.305ZM368.542 264.968H356.853V284.174H368.542C375.608 284.174 378.9 280.528 378.9 274.462C378.9 268.729 375.585 264.968 368.542 264.968ZM409.905 249.294H432.204L453.929 302.945L475.437 249.294H497.621V326.795H478.752V280.322L461.431 326.795H446.21L428.774 280.207V326.795H409.905V249.294Z" fill="#263764"/>
<path d="M262.552 147.084H90.8938C88.8864 147.084 87.2461 145.455 87.2461 143.437V69.5938C87.2461 67.5872 88.8635 65.9475 90.8938 65.9475H262.552C264.56 65.9475 266.2 67.5643 266.2 69.5938V143.449C266.2 145.467 264.56 147.084 262.552 147.084Z" fill="url(#paint16_linear_537_1977)"/>
<path d="M104.199 118.452H115.165V137.154H104.199V118.452Z" fill="#263764"/>
<path d="M126.543 98.5923H137.509V137.154H126.543V98.5923Z" fill="#E4F5FB"/>
<path d="M148.891 109.29H159.857V137.154H148.891V109.29Z" fill="#263764"/>
<path d="M171.246 93.3751H182.212V137.131H171.246V93.3751Z" fill="#E4F5FB"/>
<path d="M193.59 82.161H204.556V137.131H193.59V82.161Z" fill="#263764"/>
<path d="M215.945 88.6739H226.911V137.154H215.945V88.6739Z" fill="#E4F5FB"/>
<path d="M238.316 102.8H249.282V137.154H238.316V102.8Z" fill="#263764"/>
<path d="M100.425 223.576L103.579 205.86C103.763 204.84 102.845 203.945 101.824 204.163L66.1273 211.651C65.1065 211.869 64.6362 213.038 65.2212 213.91L75.2236 228.873C75.5562 229.366 76.1527 229.619 76.7492 229.493L99.3005 224.757C99.8511 224.642 100.31 224.184 100.425 223.576ZM79.4792 238.494C76.841 239.044 75.1662 241.624 75.7054 244.273C76.256 246.91 78.8368 248.596 81.4751 248.045C84.1134 247.495 85.7881 244.915 85.249 242.266C84.6984 239.617 82.1175 237.92 79.4792 238.494ZM97.7749 234.641C95.1367 235.191 93.462 237.771 94.0011 240.42C94.5517 243.057 97.1326 244.743 99.7708 244.192C102.409 243.642 104.084 241.062 103.545 238.413C103.006 235.776 100.425 234.079 97.7749 234.641ZM101.824 227.371L75.1204 232.99C74.5583 233.104 73.9733 232.875 73.6406 232.428L55.2302 207.534C54.8861 207.076 54.3011 206.858 53.7505 206.973L40.3642 209.782C39.4351 209.988 38.8501 210.871 39.0336 211.8C39.2401 212.729 40.1233 213.313 41.0525 213.13L52.2937 210.779C52.8558 210.665 53.4408 210.894 53.7734 211.341L72.1839 236.235C72.528 236.693 73.113 236.911 73.6636 236.797L102.512 230.742C103.441 230.536 104.026 229.653 103.843 228.724C103.648 227.773 102.753 227.176 101.824 227.371Z" fill="#E4F5FB"/>
<g opacity="0.2">
<path opacity="0.2" d="M645.867 247.736V256.267C645.867 257.253 646.67 258.055 647.657 258.055H650.857C651.281 258.055 651.637 258.353 651.763 258.743C652.417 261.082 653.426 263.261 654.677 265.268L651.981 267.962C651.293 268.65 651.293 269.785 651.981 270.473L658.015 276.505C658.703 277.204 659.838 277.204 660.527 276.505L663.314 273.718C665.539 275.048 667.994 276.058 670.598 276.631V280.438C670.598 281.424 671.401 282.226 672.387 282.226H680.91C681.897 282.226 682.699 281.424 682.699 280.438V276.505C685.28 275.851 687.712 274.796 689.915 273.409L692.587 276.092C693.275 276.78 694.411 276.78 695.099 276.092L701.133 270.061C701.821 269.373 701.821 268.237 701.133 267.549L698.85 265.268C698.54 264.958 698.483 264.499 698.701 264.132C699.745 262.275 700.536 260.291 701.087 258.193C701.202 257.769 701.557 257.482 702.005 257.482H705.079C706.065 257.482 706.868 256.679 706.868 255.693V247.162C706.868 246.176 706.065 245.373 705.079 245.373H701.855C701.431 245.373 701.075 245.087 700.949 244.685C700.353 242.587 699.515 240.626 698.437 238.803C698.219 238.425 698.277 237.966 698.586 237.657L700.754 235.489C701.443 234.801 701.443 233.666 700.754 232.978L694.721 226.947C694.032 226.259 692.897 226.259 692.209 226.947L689.421 229.733C687.402 228.529 685.177 227.601 682.849 226.981C682.424 226.867 682.137 226.511 682.137 226.076V223.014C682.137 222.028 681.334 221.225 680.348 221.225H671.825C670.839 221.225 670.036 222.028 670.036 223.014V226.225C670.036 226.649 669.749 227.004 669.348 227.13C667.249 227.727 665.287 228.575 663.452 229.665C663.073 229.882 662.614 229.825 662.305 229.515L660.137 227.348C659.448 226.66 658.313 226.66 657.625 227.348L651.591 233.38C650.903 234.068 650.903 235.203 651.591 235.891L653.874 238.173C654.183 238.482 654.241 238.941 654.023 239.308C652.99 241.165 652.188 243.149 651.637 245.27C651.522 245.683 651.167 245.981 650.731 245.981H647.668C646.659 245.947 645.867 246.749 645.867 247.736ZM664.117 244.181C665.161 242.209 666.778 240.569 668.74 239.537C682.16 232.336 695.719 245.821 688.572 259.294C687.529 261.266 685.9 262.906 683.927 263.938C670.506 271.047 657.028 257.608 664.117 244.181Z" fill="#E4F5FB"/>
<path opacity="0.2" d="M676.357 242.736C681.312 242.736 685.316 246.749 685.316 251.703C685.316 256.656 681.312 260.67 676.357 260.67C671.402 260.67 667.398 256.656 667.398 251.703C667.387 246.749 671.402 242.736 676.357 242.736Z" fill="#E4F5FB"/>
</g>
<path d="M407.449 120.47C406.795 120.161 406.061 119.977 405.35 119.943C393.421 119.197 387.571 129.896 391.218 138.277L379.633 145.146L381.296 147.932L392.881 141.064C396.839 146.166 404.088 147.657 409.766 144.274C418.3 139.195 418.92 125.791 407.449 120.47ZM412.714 136.087C407.667 147.473 392.262 143.563 393.294 131.134C393.329 130.767 393.421 130.4 393.57 130.079C398.617 118.67 414.022 122.603 412.99 135.032C412.944 135.399 412.852 135.766 412.714 136.087Z" fill="#E4F5FB"/>
<path d="M121.073 323.288H3.80815C2.29402 323.288 1.07812 322.072 1.07812 320.559V285.953C1.07812 284.439 2.29402 283.224 3.80815 283.224H121.073C122.587 283.224 123.803 284.451 123.803 285.953V320.559C123.803 322.072 122.564 323.288 121.073 323.288Z" fill="url(#paint17_linear_537_1977)"/>
<path d="M24.1339 295.206L26.2674 299.529C26.3362 299.678 26.4854 299.781 26.6459 299.804L31.4177 300.492C31.8421 300.55 32.0027 301.054 31.693 301.352L28.2289 304.723C28.1142 304.838 28.0683 304.999 28.0798 305.159L28.8942 309.918C28.963 310.319 28.5271 310.64 28.1715 310.445L23.9045 308.198C23.7553 308.129 23.5718 308.129 23.4342 308.198L19.1671 310.445C18.8 310.64 18.3641 310.319 18.4329 309.918L19.2588 305.159C19.2932 304.999 19.2359 304.827 19.1097 304.723L15.6456 301.352C15.3588 301.066 15.5194 300.55 15.9209 300.492L20.6927 299.804C20.8533 299.781 21.0024 299.678 21.0712 299.529L23.2047 295.206C23.4227 294.839 23.9503 294.839 24.1339 295.206ZM43.5078 295.206L45.6414 299.529C45.7102 299.678 45.8593 299.781 46.0199 299.804L50.7917 300.492C51.2161 300.55 51.3767 301.054 51.067 301.352L47.6028 304.723C47.4881 304.838 47.4423 304.999 47.4537 305.159L48.2682 309.918C48.337 310.319 47.9011 310.64 47.5455 310.445L43.2784 308.198C43.1293 308.129 42.9458 308.129 42.8081 308.198L38.5525 310.445C38.1854 310.64 37.7496 310.319 37.8298 309.918L38.6443 305.159C38.6787 304.999 38.6213 304.827 38.4951 304.723L35.031 301.352C34.7442 301.066 34.9048 300.55 35.3063 300.492L40.0781 299.804C40.2387 299.781 40.3878 299.678 40.4566 299.529L42.5902 295.206C42.7966 294.839 43.3243 294.839 43.5078 295.206ZM62.8703 295.206L65.0039 299.529C65.0727 299.678 65.2218 299.781 65.3824 299.804L70.1542 300.492C70.5671 300.55 70.7392 301.054 70.4295 301.352L66.9654 304.723C66.8506 304.838 66.8048 304.999 66.8162 305.159L67.6307 309.918C67.6995 310.319 67.2636 310.64 66.908 310.445L62.6409 308.198C62.4918 308.129 62.3083 308.129 62.1706 308.198L57.9035 310.445C57.5365 310.64 57.1006 310.319 57.1809 309.918L57.9953 305.159C58.0297 304.999 57.9723 304.827 57.8462 304.723L54.382 301.352C54.0953 301.066 54.2559 300.55 54.6573 300.492L59.4291 299.804C59.5897 299.781 59.7388 299.678 59.8076 299.529L61.9412 295.206C62.1591 294.839 62.6868 294.839 62.8703 295.206ZM82.2328 295.206L84.3664 299.529C84.4352 299.678 84.5843 299.781 84.7449 299.804L89.5167 300.492C89.9296 300.55 90.1017 301.054 89.792 301.352L86.3279 304.723C86.2132 304.838 86.1673 304.999 86.1787 305.159L87.0046 309.918C87.0734 310.319 86.6376 310.64 86.2705 310.445L82.0034 308.198C81.8543 308.129 81.6708 308.129 81.5331 308.198L77.266 310.445C76.899 310.64 76.4631 310.319 76.5434 309.918L77.3578 305.159C77.3922 304.999 77.3463 304.827 77.2087 304.723L73.7445 301.352C73.4578 301.066 73.6183 300.55 74.0198 300.492L78.7916 299.804C78.9522 299.781 79.1013 299.678 79.1701 299.529L81.3037 295.206C81.5216 294.839 82.0493 294.839 82.2328 295.206ZM101.618 295.206L103.752 299.529C103.821 299.678 103.97 299.781 104.13 299.804L108.902 300.492C109.327 300.55 109.487 301.054 109.177 301.352L105.713 304.723C105.599 304.838 105.553 304.999 105.564 305.159L106.379 309.918C106.447 310.319 106.012 310.64 105.644 310.445L101.377 308.198C101.228 308.129 101.045 308.129 100.907 308.198L96.6515 310.445C96.2844 310.64 95.8485 310.319 95.9173 309.918L96.7432 305.159C96.7776 304.999 96.7203 304.827 96.5941 304.723L93.13 301.352C92.8432 301.066 93.0038 300.55 93.4053 300.492L98.1771 299.804C98.3376 299.781 98.4868 299.678 98.5556 299.529L100.689 295.206C100.884 294.839 101.412 294.839 101.618 295.206Z" fill="#E4F5FB"/>
<path d="M55.918 486.81H673.614V516.863H55.918V486.81Z" fill="#3D479E"/>
<path d="M55.918 486.81H673.614V489.034H55.918V486.81Z" fill="#1A2645"/>
<path d="M274.503 529.43L279.068 533.891L273.723 542.089L266.68 536.379L274.503 529.43Z" fill="#F2BC97"/>
<path d="M146.49 464.37C151.64 474.174 168.984 478.611 184.011 480.687C196.468 482.418 207.353 482.521 208.397 482.716C210.726 483.129 221.634 501.108 229.744 509.547C237.877 517.987 266.657 537.525 266.657 537.525L275.765 529.522C275.765 529.522 239.987 485.617 228.987 474.541C217.987 463.464 188.117 455.61 188.117 455.61C188.117 455.61 137.061 446.459 146.49 464.37Z" fill="#1A2645"/>
<path opacity="0.3" d="M169.582 462.684L184.012 480.687C196.469 482.418 207.355 482.521 208.399 482.716C210.727 483.129 221.636 501.108 229.746 509.547C237.878 517.987 266.658 537.525 266.658 537.525L275.766 529.522C260.395 532.354 258.422 528.398 246.447 518.159C234.495 507.942 225.972 485.296 219.606 480.079C213.239 474.885 197.846 472.224 197.066 469.277C196.286 466.331 203.822 464.152 203.822 464.152L192.753 462.512L169.582 462.684Z" fill="black"/>
<path d="M280.328 516.84L287.05 517.815L285.834 528.226L276.898 526.759L280.328 516.84Z" fill="#F2BC97"/>
<path d="M286.765 517.643C286.765 517.643 290.263 517.883 290.871 517.711C291.456 517.539 303.569 510.224 305.003 510.052C305.152 510.029 306.506 510.075 306.529 510.373C306.815 513.274 302.858 529.82 301.7 530.347C300.438 530.932 285.457 528.295 285.457 528.295L286.765 517.643Z" fill="#1A2645"/>
<path d="M278.529 532.767C278.529 532.767 281.178 535.106 281.74 535.324C282.325 535.542 296.343 537.124 297.57 537.881C297.685 537.95 298.763 538.81 298.591 539.073C297.065 541.539 283.897 552.271 282.658 551.973C281.305 551.675 271.004 540.438 271.004 540.438L278.529 532.767Z" fill="url(#paint18_linear_537_1977)"/>
<path d="M135.444 481.753C141.638 502.541 205.243 501.555 205.243 501.555C205.243 501.555 218.021 510.878 231.74 517.287C245.459 523.708 279.653 527.779 279.653 527.779L281.959 515.579C259.35 509.754 220.097 482.349 215.268 480.01C212.446 478.646 194.77 471.009 180.661 464.909C172.379 461.343 165.336 458.327 163.145 457.375C162.709 457.203 162.469 457.077 162.469 457.077C162.469 457.077 161.987 457.123 161.104 457.272C154.967 458.293 129.995 463.51 135.444 481.753Z" fill="#1A2645"/>
<path d="M180.809 387.992C183.126 388.233 185.007 389.976 185.776 392.155C189.32 401.924 200.631 434.844 193.61 437.848C185.363 441.357 177.058 411.579 175.739 402.692C174.672 395.262 175.234 387.385 180.809 387.992Z" fill="#F2BC97"/>
<path d="M185.215 388.497C185.215 388.497 189.826 390.939 191.822 400.399C193.818 409.859 203.178 460.322 203.178 460.322C203.178 460.322 184.458 463.98 183.976 460.563C183.506 457.146 185.215 388.497 185.215 388.497Z" fill="#DA3685"/>
<path opacity="0.5" d="M189.515 413.528L196.271 462.008L182.781 458.717L189.515 413.528Z" fill="#AD316D"/>
<path d="M141.052 389.689C138.735 389.449 136.544 390.756 135.306 392.716C129.811 401.534 111.882 431.335 118.134 435.75C125.464 440.91 139.791 413.551 142.934 405.123C145.537 398.071 146.627 390.263 141.052 389.689ZM155.505 412.175C156.997 411.934 158.545 413.218 158.855 414.961C159.119 416.337 159.44 419.789 159.405 422.162C159.36 428.102 159.578 433.594 157.639 434.546C155.712 435.463 153.682 431.851 153.131 425.992C152.626 420.706 150.768 414.216 152.041 413.253C152.672 412.748 154.175 412.393 155.505 412.175Z" fill="#F2BC97"/>
<path d="M192.555 462.742L180.419 461.48L162.64 460.85L160.426 461.091L154.874 458.843L141.729 457.49L138.058 457.1L138.012 456.206C138.012 456.206 137.92 454.578 137.794 451.826C137.702 449.934 137.576 447.537 137.461 444.751C137.175 438.238 136.854 429.776 136.67 421.486C136.383 409.159 136.406 397.234 137.324 392.923C139.515 382.672 155.539 384.931 155.539 384.931H155.562L174.959 386.341C174.959 386.341 185.409 386.146 187.141 390.698C189.275 396.179 192.555 462.742 192.555 462.742Z" fill="white"/>
<path d="M135.914 472.844L138.805 471.995L163.845 464.611C164.063 456.298 164.545 431.805 164.74 421.818C164.74 421.142 164.763 420.511 164.74 419.926C163.891 396.5 155.598 384.965 155.598 384.965H155.575C155.575 384.965 139.562 382.718 137.359 392.957C136.442 397.269 136.419 409.194 136.706 421.543C136.878 429.799 137.21 438.284 137.497 444.808C137.612 447.572 137.738 449.968 137.83 451.883C137.956 454.646 138.048 456.275 138.048 456.275L135.914 472.844Z" fill="#DA3685"/>
<path opacity="0.5" d="M135.914 472.844L138.805 471.995C143.003 454.841 140.296 444.373 139.676 436.277C138.61 423.24 142.785 413.31 143.049 412.748L136.774 421.107C136.774 421.107 136.751 421.279 136.706 421.543C136.878 429.81 137.21 438.284 137.497 444.808C137.612 447.572 137.738 449.968 137.83 451.883C137.956 454.646 138.048 456.275 138.048 456.275L135.914 472.844Z" fill="#AD316D"/>
<path opacity="0.5" d="M160.999 457.433V461.354L154.897 458.855L137.817 451.849C137.725 449.957 137.599 447.56 137.484 444.774C145.055 448.661 160.999 457.089 160.999 457.433Z" fill="#C33379"/>
<path d="M118.593 434.248C118.707 436.231 119.946 438.009 121.655 439.018C130.075 444.109 160.736 462.306 164.234 459.783C168.306 456.848 125.303 428.572 122.871 429.661C120.956 430.51 118.398 431.049 118.593 434.248Z" fill="#F2BC97"/>
<path d="M160.69 455.426C160.69 455.426 164.361 454.142 168.077 454.795C170.83 455.277 174.524 459.107 174.157 460.758C173.824 462.409 172.23 461.973 169.133 460.253C165.921 458.465 166.334 461.629 163.271 460.953C160.186 460.276 159.727 458.625 159.727 458.625L160.69 455.426ZM155.597 384.965C163.168 391.799 173.927 386.88 174.822 386.444C174.822 386.444 174.822 386.467 174.845 386.444L174.891 386.421C171.106 385.137 170.98 380.218 170.98 380.218C177.231 381.606 182.393 368.568 183.402 365.656C184.389 362.72 187.669 351.919 173.824 350.199C159.979 348.456 159.887 365.197 159.612 371.79C159.337 378.372 154.966 384.403 155.597 384.965Z" fill="#F2BC97"/>
<path d="M159.484 373.545C159.484 373.545 154.712 349.293 165.896 345.968C176.174 342.941 179.432 347.929 184.812 354.763C190.168 361.597 196.775 362.491 196.775 362.491C196.775 362.491 186.303 369.715 179.914 365.128C174.465 361.23 168.041 359.624 167.009 362.847C165.977 366.069 167.009 369.394 165.782 369.394C164.554 369.394 163.923 363.477 162.375 364.716C160.826 365.988 164.233 372.409 159.484 373.545Z" fill="#1A2645"/>
<path d="M165.875 378.808C165.875 378.808 167.469 385.883 174.822 386.467C174.822 386.467 174.822 386.49 174.845 386.467L174.891 386.444C171.106 385.16 170.979 380.241 170.979 380.241C170.979 380.241 168.066 380.069 165.875 378.808Z" fill="#E5AD88"/>
<path d="M142.325 386.972C142.325 386.972 135.878 388.187 129.81 399.906C123.731 411.613 112.926 429.202 117.17 436.392C121.414 443.581 148.989 454.566 148.989 454.566L153.474 448.455C153.474 448.455 130.143 431.863 130.143 431.37C130.143 430.888 141.556 413.677 141.556 413.677L142.325 386.972ZM181.428 421.256C180.993 404.057 175.498 388.233 174.867 386.433L174.752 386.192H175.016C175.452 386.192 185.604 386.077 187.347 390.652C189.423 396.076 192.601 460.001 192.727 462.73V462.925L180.396 461.641L180.224 461.618V461.446C180.832 452.628 181.578 432.803 181.383 421.807C181.428 421.646 181.428 421.451 181.428 421.256Z" fill="#DA3685"/>
<path d="M175.154 386.318L184.388 406.671L184.411 406.717L183.447 409.526L184.778 412.335L181.451 422.609L181.428 421.233C180.993 404.034 175.498 388.21 174.867 386.41L175.154 386.318Z" fill="#AD316D"/>
<path d="M183.352 466.078C183.57 465.815 215.24 463.292 215.24 463.292L226.848 432.883C226.871 432.814 226.894 432.791 226.894 432.791C227.353 432.746 195.9 433.422 195.9 433.422L183.501 465.746L183.352 466.078Z" fill="#C7D4F9"/>
<path d="M183.352 466.078C183.57 465.815 215.24 463.292 215.24 463.292L226.848 432.883C225.954 434.752 211.363 464.702 184.35 465.711C184.063 465.734 183.776 465.734 183.501 465.757L183.352 466.078Z" fill="#C7D4F9"/>
<path d="M160.148 464.68L183.422 465.964L184.168 464.026L185.017 461.801L160.389 460.425L160.275 462.558L160.148 464.68Z" fill="#B9C8FC"/>
<path d="M195.881 433.422L194.7 433.514L182.449 465.929L183.413 465.952L195.881 433.422Z" fill="#B9C8FC"/>
<path d="M160.148 464.68L183.422 465.987L184.168 464.026C178.238 463.682 164.553 462.868 160.263 462.57L160.148 464.68Z" fill="#B9C8FC"/>
<path d="M218.408 455.059C218.408 455.059 213.683 453.672 212.96 457.02C212.237 460.368 215.805 461.893 215.805 461.893C215.805 461.893 218.867 457.605 218.408 455.059Z" fill="#F2BC97"/>
<path d="M208.419 449.292C207.938 450.622 206.687 451.378 205.598 450.966C204.531 450.576 204.049 449.177 204.531 447.87C205.013 446.54 206.263 445.783 207.353 446.196C208.419 446.574 208.901 447.962 208.419 449.292Z" fill="white"/>
<path d="M564.289 275.243C562.396 275.61 560.963 277.17 560.446 279.027C558.152 287.363 550.926 315.433 556.925 317.44C563.991 319.813 568.912 294.553 569.416 287.1C569.841 280.885 568.843 274.395 564.289 275.243Z" fill="#F2BC97"/>
<path d="M563.817 274.017C563.817 274.017 559.963 276.069 558.299 284.027C556.636 291.984 548.848 334.49 548.848 334.49C548.848 334.49 564.425 337.586 564.838 334.708C565.251 331.841 563.828 274.017 563.817 274.017Z" fill="#FFA800"/>
<path opacity="0.5" d="M560.341 295.803L554.594 335.935L566.064 333.217L560.341 295.803Z" fill="#C33379"/>
<path d="M601.201 274.12C603.036 274.521 604.39 276.138 604.814 277.995C606.81 286.354 613.062 314.47 607.2 316.316C600.318 318.483 596.2 293.223 595.913 285.781C595.672 279.543 596.785 273.122 601.201 274.12ZM587.86 294.69C586.53 294.484 585.188 295.527 584.912 296.949C584.683 298.073 584.396 300.859 584.419 302.82C584.465 307.647 584.259 312.142 585.968 312.899C587.677 313.656 589.432 310.709 589.948 305.939C590.396 301.639 592.013 296.364 590.912 295.55C590.338 295.149 589.008 294.874 587.86 294.69Z" fill="#F2BC97"/>
<path d="M556.891 337.162L565.597 339.375L581.518 339.306L583.858 335.774L588.515 333.894L599.539 332.759L602.624 332.438L602.647 331.681C602.647 331.681 602.716 330.305 602.842 328C602.922 326.406 603.014 324.4 603.117 322.072C603.347 316.626 603.634 309.493 603.783 302.556C604.024 292.202 604.001 282.204 603.221 278.592C601.374 270.003 587.93 271.895 587.93 271.895H587.907L571.619 273.076C571.619 273.076 562.844 272.927 561.41 276.734C559.655 281.321 556.891 337.162 556.891 337.162Z" fill="white"/>
<path d="M576.482 342.07C581.231 342.952 584.386 348.216 583.353 353.502C582.539 357.71 579.625 367.743 576.85 374.485C569.979 391.214 564.427 407.095 557.613 407.669C550.8 408.253 548.873 395.87 553.828 378.693C558.301 363.156 560.125 342.884 565.023 341.427C567.512 340.716 572.33 341.301 576.482 342.07Z" fill="#F2BC97"/>
<path d="M589.142 340.522C593.662 339.776 598.307 343.64 599.271 348.904C600.039 353.089 601.003 363.386 600.946 370.575C600.774 388.405 601.485 405.008 595.658 407.783C589.831 410.558 583.774 399.711 582.053 382.099C580.505 366.183 574.965 346.725 578.773 343.755C580.723 342.196 585.196 341.164 589.142 340.522Z" fill="#F2BC97"/>
<path d="M554.513 399.7C567.383 397.211 552.758 456.665 547.046 468.475C541.322 480.285 541.287 471.995 543.295 450.347C545.279 428.721 549.443 400.663 554.513 399.7Z" fill="#F2BC97"/>
<path d="M540.555 459.864L539.293 476.146L545.82 476.272L550.615 459.176L540.555 459.864Z" fill="#F2BC97"/>
<path d="M539.121 471.169C539.121 471.169 536.471 474.437 530.552 478.6C524.622 482.762 523.165 481.753 522.97 483.393C522.775 485.021 546.852 484.551 546.852 484.551L547.494 471.124C547.471 471.101 539.121 470.825 539.121 471.169Z" fill="black"/>
<path d="M592.092 401.098C602.461 392.808 613.852 453.076 613.829 466.377C613.806 479.678 607.302 457.146 599.777 436.759C592.264 416.395 588.008 404.366 592.092 401.098Z" fill="#F2BC97"/>
<path d="M606.074 459.359L612.521 474.357L618.371 471.387L614.643 454.05L606.074 459.359Z" fill="#F2BC97"/>
<path d="M610.148 470.011C610.148 470.011 608.76 473.979 604.562 479.895C600.387 485.801 598.654 485.353 599.01 486.959C599.377 488.564 621.883 479.999 621.883 479.999L617.982 467.133C618.005 467.133 610.045 469.667 610.148 470.011Z" fill="black"/>
<path d="M617.281 461.331L612.211 463.395L607.52 465.31C607.52 465.31 587.813 415.867 585.358 408.575C582.892 401.27 578.591 375.173 578.591 375.173L562.314 410.398C559.171 436.667 550.407 463.842 549.914 464.829C549.857 464.932 545.463 464.336 542.424 463.911C540.841 463.693 539.613 463.499 539.613 463.499C539.613 463.499 544.924 413.964 546.576 401.03C548.228 388.084 560.18 339.409 560.18 339.409L596.301 340.395L598.871 340.476C604.457 355.852 600.695 404.126 600.695 404.126C609.08 418.344 617.281 461.331 617.281 461.331Z" fill="#1A2645"/>
<path opacity="0.3" d="M612.199 463.395C615.331 453.282 611.156 446.941 609.676 442.297C608.139 437.355 607.106 430.487 605.673 422.197C604.239 413.906 598.435 409.733 597.666 404.171C596.897 398.587 598.698 381.984 598.951 375.242C599.203 368.5 598.802 360.679 598.01 352.492C597.242 344.294 591.977 341.714 591.977 341.714L596.324 340.441L598.893 340.522C604.48 355.898 600.717 404.171 600.717 404.171C609.091 418.344 617.269 461.354 617.269 461.354L612.199 463.395Z" fill="black"/>
<path d="M562.177 342.173H561.615C561.443 342.173 561.316 342.047 561.316 341.875V337.896C561.316 337.724 561.443 337.598 561.615 337.598H562.177C562.349 337.598 562.475 337.724 562.475 337.896V341.875C562.475 342.024 562.349 342.173 562.177 342.173Z" fill="url(#paint19_linear_537_1977)"/>
<path d="M595.671 342.173H595.304C595.086 342.173 594.902 342.001 594.902 341.76V337.976C594.902 337.758 595.074 337.563 595.304 337.563H595.671C595.889 337.563 596.072 337.735 596.072 337.976V341.76C596.084 341.989 595.889 342.173 595.671 342.173Z" fill="url(#paint20_linear_537_1977)"/>
<path opacity="0.3" d="M578.581 375.173L562.304 410.398C559.161 436.667 550.398 463.842 549.904 464.829C549.847 464.932 545.454 464.336 542.414 463.911C552.325 459.21 551.235 453.213 553.552 443.868C556.271 432.975 558.989 414.801 559.609 408.987C560.274 403.139 576.826 367.594 576.826 367.594L578.581 375.173Z" fill="black"/>
<path d="M603.78 302.304V302.625C603.7 306.214 603.585 309.837 603.482 313.232C603.379 316.259 603.253 319.148 603.138 321.636C603.138 321.763 603.138 321.889 603.115 322.003C603.035 324.113 603.035 325.65 602.943 327.152C602.897 327.92 602.863 328.631 602.817 329.227C602.737 330.466 602.737 331.704 602.771 332.942C602.943 336.462 602.92 344.191 599.984 347.161C599.112 348.032 592.665 346.415 587.527 344.913H587.504C585.645 344.363 583.925 343.847 582.743 343.457C581.665 343.113 580.942 342.115 580.965 340.98C581.046 337.655 581.344 331.738 581.436 328.574C581.504 327.415 581.516 326.223 581.585 324.962C581.906 317.233 582.411 308.118 582.892 301.238C584.521 278.844 588.123 271.884 588.123 271.884H588.146C588.146 271.884 601.429 270.003 603.23 278.523C604.01 282.135 604.01 292.042 603.78 302.304Z" fill="#FFA800"/>
<path opacity="0.5" d="M601.397 325.615C601.397 325.615 602.704 326.888 599.057 328.138C595.42 329.388 585.475 332.61 585.567 332.495C585.659 332.357 601.397 325.615 601.397 325.615Z" fill="#C33379"/>
<path opacity="0.5" d="M603.608 329.365C603.517 330.592 603.517 331.819 603.563 333.057C603.735 336.554 603.712 344.225 600.683 347.172C599.789 348.044 593.147 346.427 587.848 344.948C590.784 345.475 595.338 346.071 597.953 345.349C602.025 344.225 602.094 336.096 601.853 332.185C601.59 328.264 601.658 324.537 601.658 324.537C601.658 324.537 602.748 323.391 603.907 322.187C603.815 324.285 603.815 325.81 603.735 327.289C603.7 328.069 603.654 328.769 603.608 329.365Z" fill="#C33379"/>
<path d="M571.699 273.065L571.802 272.87H571.585C571.229 272.87 562.787 272.767 561.33 276.619C559.816 280.598 557.59 322.531 556.994 334.158C556.891 336.05 557.017 338.423 556.891 340.9V341.003C556.914 341.588 557.063 346.771 557.739 347.287C558.76 348.078 564.519 344.764 566.664 343.48C567.157 343.182 567.444 342.643 567.432 342.035L567.237 336.118V335.992C566.744 328.723 567.535 312.532 568.109 303.233C568.568 295.654 571.424 273.845 571.699 273.065Z" fill="#FFA800"/>
<path opacity="0.5" d="M607.359 309.551L603.723 313.484C601.279 316.121 598.481 319.137 598.343 319.251C598.079 319.446 581.08 329.055 581.08 329.055L580.965 328.803C581.011 327.656 581.057 326.464 581.091 325.202C584.808 322.588 595.475 314.974 597.941 312.738C600.958 310.032 599.903 294.656 599.903 294.656L604.032 302.935L607.359 309.551Z" fill="#AD316D"/>
<path d="M587.813 271.012C588.329 270.542 584.705 265.508 584.464 260.028C584.234 254.524 584.165 240.558 572.626 242.014C561.086 243.47 563.828 252.46 564.665 254.902C565.491 257.344 569.804 268.203 575.012 267.068C575.012 267.068 574.886 271.161 571.754 272.228C571.731 272.239 581.229 276.975 587.813 271.012ZM610.789 314.539C610.686 316.201 609.642 317.646 608.185 318.506C601.039 322.726 575 337.838 572.029 335.752C568.577 333.321 605.099 309.849 607.164 310.743C608.77 311.42 610.961 311.867 610.789 314.539Z" fill="#F2BC97"/>
<path d="M575.54 333.16C575.54 333.16 572.351 332.128 569.093 332.644C566.685 333.034 563.473 336.096 563.783 337.414C564.092 338.733 565.457 338.377 568.153 337.001C570.94 335.568 570.585 338.114 573.28 337.552C575.953 337.001 576.377 335.706 576.377 335.706" fill="#F2BC97"/>
<path d="M598.987 272.87C598.987 272.87 605.319 275.06 607.82 283.499C610.905 293.945 614.473 311.924 612.568 316.029C609.643 322.301 585.738 331.337 585.738 331.337L582.137 324.87C582.137 324.87 601.396 311.259 601.396 310.858C601.396 310.457 599.618 294.977 599.618 294.977L598.987 272.87Z" fill="#FFA800"/>
<path d="M582.4 324.48C582.572 324.526 586.713 331.669 586.713 331.669L585.199 332.472C585.13 332.518 585.073 332.495 585.027 332.426L581 325.638C580.955 325.569 580.977 325.501 581.046 325.455C581.046 325.466 581.998 324.388 582.4 324.48Z" fill="white"/>
<path d="M584.027 247.025C583.729 246.337 583.408 245.637 583.075 244.949C581.87 242.518 580.024 239.938 577.305 239.652C575.126 239.422 573.13 240.741 571.111 241.624C567.911 243.023 564.217 243.321 560.822 242.461C559.354 242.083 557.874 241.521 556.394 241.785C554.398 242.163 552.976 244.032 552.517 245.958C551.771 248.974 552.964 252.368 555.419 254.294C557.885 256.198 561.487 256.542 564.286 255.177C566.236 254.237 568.335 253.274 570.48 252.873C571.535 252.689 572.832 252.62 573.761 253.228C574.69 253.836 575.206 254.799 575.711 255.739C576.181 256.599 576.64 258.09 577.638 258.525C578.59 258.961 578.487 257.39 578.418 256.886C578.315 255.854 578.165 254.833 578.016 253.824C577.936 253.274 577.569 252.001 578.142 251.577C578.223 251.508 578.338 251.497 578.441 251.474C579.416 251.37 580.414 251.909 581.045 252.609C582.616 254.283 581.893 256.794 582.398 258.812C582.742 260.211 583.729 262.917 585.679 262.504C586.596 262.298 586.596 260.933 586.596 260.245C586.619 258.984 586.723 257.734 586.677 256.473C586.631 255.2 586.252 253.985 585.931 252.769C585.449 250.82 584.818 248.894 584.027 247.025Z" fill="#1A2645"/>
<path d="M528.661 311.385L538.331 336.978C538.331 336.978 564.656 339.088 564.851 339.306L554.435 311.913C554.412 311.924 528.259 311.363 528.661 311.385Z" fill="#C7D4F9"/>
<path d="M584.123 338.137L564.76 339.214L564.141 337.575L563.418 335.706L583.905 334.559L584.008 336.348L584.123 338.137Z" fill="#B9C8FC"/>
<path d="M554.414 311.924L555.389 312.005L565.587 339.168L564.761 339.214L554.414 311.924Z" fill="#B9C8FC"/>
<path d="M584.123 338.137L564.76 339.237L564.141 337.598C569.073 337.299 580.44 336.623 584.031 336.371L584.123 338.137Z" fill="#B9C8FC"/>
<path d="M543.988 325.214C544.389 326.338 545.433 326.957 546.328 326.636C547.223 326.315 547.624 325.122 547.223 324.033C546.821 322.909 545.777 322.29 544.883 322.611C543.988 322.955 543.586 324.113 543.988 325.214Z" fill="white"/>
<path d="M576.859 158.188C602.009 158.188 622.397 137.786 622.397 112.62C622.397 87.4541 602.009 67.0529 576.859 67.0529C551.709 67.0529 531.32 87.4541 531.32 112.62C531.32 137.786 551.709 158.188 576.859 158.188Z" fill="#7081FF"/>
<path d="M576.86 149.106C596.999 149.106 613.325 132.771 613.325 112.62C613.325 92.4696 596.999 76.1343 576.86 76.1343C556.721 76.1343 540.395 92.4696 540.395 112.62C540.395 132.771 556.721 149.106 576.86 149.106Z" fill="#E4F5FB"/>
<path d="M576.857 138.936C591.383 138.936 603.159 127.154 603.159 112.62C603.159 98.0867 591.383 86.3049 576.857 86.3049C562.331 86.3049 550.555 98.0867 550.555 112.62C550.555 127.154 562.331 138.936 576.857 138.936Z" fill="#7081FF"/>
<path d="M580.832 129.488C590.185 127.28 595.975 117.907 593.765 108.551C591.555 99.1957 582.182 93.4012 572.829 95.6089C563.476 97.8165 557.686 107.19 559.896 116.546C562.106 125.901 571.479 131.695 580.832 129.488Z" fill="#E4F5FB"/>
<path d="M569.184 112.62C569.184 116.851 572.613 120.291 576.858 120.291C581.079 120.291 584.52 116.863 584.52 112.62C584.52 108.389 581.09 104.949 576.858 104.949C572.636 104.949 569.184 108.378 569.184 112.62Z" fill="#263764"/>
<path d="M528.773 65.0761L530.116 63.7345L575.379 109.027L574.037 110.368L528.773 65.0761Z" fill="#1A2645"/>
<path d="M577.913 112.891L576.789 107.055L572.086 111.756L577.913 112.891Z" fill="#1A2645"/>
<path d="M530.46 66.5094L524.105 64.5257L528.074 62.9777L529.588 59.0562L531.607 65.3628L530.46 66.5094Z" fill="#DA3685"/>
<g opacity="0.64">
<g opacity="0.64">
<path opacity="0.64" d="M384.884 180.174C384.24 180.174 383.645 179.761 383.463 179.101C383.231 178.324 383.017 177.531 382.818 176.754C382.62 175.961 383.099 175.152 383.893 174.954C384.686 174.755 385.496 175.235 385.694 176.028C385.876 176.771 386.091 177.531 386.306 178.258C386.537 179.051 386.091 179.877 385.297 180.108C385.165 180.158 385.033 180.174 384.884 180.174Z" fill="white"/>
</g>
<g opacity="0.64">
<path opacity="0.64" d="M382.852 170.262C382.109 170.262 381.464 169.7 381.381 168.956C381.183 167.337 381.067 165.702 381.001 164.083C380.968 163.256 381.613 162.579 382.423 162.546C383.232 162.513 383.927 163.157 383.96 163.967C384.026 165.503 384.141 167.073 384.323 168.609C384.422 169.419 383.844 170.162 383.018 170.262C382.968 170.262 382.918 170.262 382.852 170.262ZM382.654 157.755C382.604 157.755 382.571 157.755 382.522 157.755C381.712 157.689 381.1 156.962 381.166 156.152C381.299 154.533 381.514 152.897 381.778 151.311C381.91 150.502 382.687 149.957 383.48 150.089C384.29 150.221 384.836 150.981 384.703 151.791C384.455 153.31 384.257 154.864 384.125 156.4C384.075 157.177 383.431 157.755 382.654 157.755ZM384.984 145.479C384.836 145.479 384.703 145.463 384.555 145.413C383.761 145.182 383.315 144.356 383.563 143.563C384.026 142.01 384.555 140.457 385.15 138.937C385.447 138.177 386.307 137.797 387.067 138.078C387.827 138.375 388.207 139.234 387.926 139.994C387.364 141.432 386.869 142.918 386.422 144.389C386.224 145.066 385.629 145.479 384.984 145.479ZM389.777 133.931C389.546 133.931 389.298 133.881 389.067 133.749C388.34 133.353 388.075 132.46 388.472 131.733C389.249 130.313 390.091 128.892 390.967 127.537C391.414 126.843 392.339 126.645 393.017 127.107C393.711 127.553 393.909 128.479 393.463 129.156C392.62 130.445 391.827 131.799 391.083 133.154C390.819 133.65 390.306 133.931 389.777 133.931ZM396.851 123.605C396.504 123.605 396.174 123.489 395.893 123.258C395.265 122.729 395.182 121.787 395.711 121.16C396.752 119.921 397.876 118.714 399.016 117.558C399.595 116.98 400.537 116.963 401.115 117.541C401.694 118.12 401.71 119.061 401.132 119.64C400.041 120.747 398.983 121.887 397.992 123.076C397.694 123.423 397.264 123.605 396.851 123.605ZM405.859 114.931C405.413 114.931 404.983 114.733 404.685 114.369C404.173 113.725 404.289 112.783 404.933 112.288C406.206 111.28 407.545 110.322 408.9 109.429C409.578 108.983 410.503 109.165 410.966 109.842C411.429 110.52 411.23 111.445 410.553 111.908C409.264 112.767 407.991 113.675 406.784 114.634C406.503 114.832 406.173 114.931 405.859 114.931ZM416.437 108.273C415.891 108.273 415.362 107.975 415.098 107.447C414.734 106.703 415.032 105.828 415.775 105.464C417.23 104.737 418.734 104.076 420.238 103.465C420.998 103.151 421.858 103.531 422.172 104.291C422.469 105.051 422.106 105.91 421.345 106.224C419.907 106.802 418.486 107.43 417.098 108.124C416.883 108.223 416.651 108.273 416.437 108.273ZM469.49 107.777C469.276 107.777 469.061 107.728 468.862 107.629C467.458 106.968 466.02 106.356 464.582 105.811C463.821 105.514 463.425 104.671 463.722 103.895C464.02 103.135 464.863 102.738 465.639 103.036C467.16 103.614 468.664 104.258 470.135 104.936C470.879 105.282 471.193 106.175 470.846 106.918C470.581 107.463 470.052 107.777 469.49 107.777ZM428.155 103.911C427.494 103.911 426.899 103.465 426.717 102.804C426.518 102.011 426.981 101.202 427.791 100.987C429.361 100.574 430.964 100.227 432.568 99.946C433.377 99.7973 434.154 100.343 434.286 101.152C434.419 101.962 433.89 102.738 433.08 102.87C431.559 103.135 430.022 103.465 428.535 103.862C428.403 103.895 428.27 103.911 428.155 103.911ZM457.69 103.647C457.574 103.647 457.458 103.63 457.343 103.614C455.839 103.25 454.301 102.953 452.781 102.722C451.971 102.589 451.409 101.829 451.541 101.02C451.674 100.21 452.434 99.6651 453.244 99.7808C454.847 100.029 456.467 100.343 458.037 100.723C458.83 100.904 459.326 101.714 459.144 102.507C458.962 103.184 458.367 103.647 457.69 103.647ZM440.517 102.044C439.724 102.044 439.079 101.416 439.03 100.623C438.997 99.7973 439.625 99.1034 440.451 99.0704C441.443 99.0208 442.451 98.9878 443.426 99.0043C444.071 99.0043 444.699 99.0208 445.343 99.0373C446.17 99.0704 446.814 99.7478 446.781 100.574C446.748 101.4 446.054 102.028 445.244 102.011C444.633 101.995 444.021 101.995 443.393 101.978C442.451 101.978 441.509 101.995 440.583 102.044C440.567 102.044 440.534 102.044 440.517 102.044Z" fill="white"/>
</g>
<g opacity="0.64">
<path opacity="0.64" d="M478.281 112.849C477.984 112.849 477.686 112.767 477.439 112.585C476.81 112.139 476.166 111.709 475.505 111.296C474.811 110.85 474.612 109.942 475.059 109.248C475.505 108.554 476.414 108.355 477.108 108.802C477.786 109.231 478.48 109.694 479.141 110.156C479.819 110.619 479.984 111.544 479.504 112.222C479.224 112.635 478.761 112.849 478.281 112.849Z" fill="white"/>
</g>
</g>
<g opacity="0.64">
<g opacity="0.64">
<path opacity="0.64" d="M503.739 153.145C503.028 153.145 502.383 152.633 502.268 151.89C502.152 151.13 502.003 150.37 501.855 149.61C501.689 148.8 502.218 148.024 503.011 147.858C503.821 147.693 504.598 148.222 504.763 149.015C504.929 149.808 505.077 150.617 505.193 151.411C505.325 152.22 504.78 152.98 503.97 153.112C503.887 153.145 503.805 153.145 503.739 153.145Z" fill="white"/>
</g>
<g opacity="0.64">
<path opacity="0.64" d="M443.019 224.006C443.019 224.006 443.002 224.006 443.019 224.006C441.73 223.99 440.44 223.94 439.168 223.857C438.837 223.841 438.523 223.808 438.193 223.791C437.383 223.725 436.771 222.998 436.837 222.189C436.904 221.379 437.631 220.768 438.441 220.834C438.755 220.867 439.052 220.883 439.366 220.9C440.589 220.983 441.812 221.032 443.019 221.049C443.845 221.049 444.506 221.726 444.49 222.552C444.49 223.345 443.829 224.006 443.019 224.006ZM450.622 223.593C449.878 223.593 449.233 223.031 449.151 222.288C449.051 221.478 449.646 220.735 450.456 220.636C451.96 220.454 453.497 220.223 454.985 219.925C455.795 219.76 456.571 220.289 456.737 221.098C456.902 221.908 456.373 222.684 455.563 222.849C453.993 223.163 452.406 223.411 450.82 223.593C450.737 223.593 450.688 223.593 450.622 223.593ZM430.772 222.684C430.673 222.684 430.573 222.668 430.458 222.651C428.888 222.321 427.317 221.924 425.797 221.478C425.004 221.247 424.557 220.421 424.789 219.628C425.02 218.835 425.847 218.389 426.64 218.62C428.094 219.05 429.598 219.43 431.086 219.743C431.896 219.909 432.408 220.702 432.226 221.511C432.077 222.205 431.466 222.684 430.772 222.684ZM462.637 220.933C462.009 220.933 461.431 220.536 461.232 219.909C460.968 219.132 461.398 218.29 462.174 218.025C463.612 217.546 465.067 217.001 466.455 216.423C467.215 216.109 468.075 216.456 468.405 217.216C468.719 217.976 468.372 218.851 467.612 219.165C466.141 219.777 464.62 220.355 463.116 220.85C462.951 220.916 462.802 220.933 462.637 220.933ZM419.054 218.917C418.855 218.917 418.657 218.884 418.459 218.785C416.988 218.141 415.533 217.447 414.128 216.687C413.401 216.307 413.137 215.398 413.517 214.671C413.897 213.944 414.806 213.68 415.533 214.06C416.872 214.77 418.26 215.448 419.649 216.059C420.409 216.39 420.739 217.265 420.409 218.009C420.178 218.587 419.632 218.917 419.054 218.917ZM473.876 215.91C473.364 215.91 472.868 215.646 472.587 215.167C472.174 214.457 472.422 213.548 473.132 213.135C474.454 212.375 475.76 211.565 477.016 210.706C477.694 210.244 478.619 210.425 479.082 211.103C479.545 211.78 479.363 212.705 478.685 213.168C477.363 214.06 475.991 214.919 474.62 215.729C474.372 215.844 474.124 215.91 473.876 215.91ZM483.859 208.74C483.445 208.74 483.032 208.575 482.751 208.244C482.206 207.633 482.272 206.691 482.884 206.146C484.024 205.138 485.148 204.081 486.206 202.991C486.784 202.396 487.726 202.396 488.305 202.958C488.9 203.536 488.9 204.478 488.338 205.056C487.23 206.196 486.057 207.319 484.85 208.377C484.569 208.624 484.222 208.74 483.859 208.74ZM492.222 199.719C491.908 199.719 491.594 199.62 491.329 199.422C490.668 198.926 490.552 198.001 491.032 197.34C491.957 196.118 492.833 194.862 493.643 193.573C494.089 192.879 495.015 192.681 495.692 193.127C496.387 193.573 496.585 194.482 496.139 195.176C495.279 196.514 494.354 197.852 493.395 199.125C493.131 199.521 492.684 199.719 492.222 199.719ZM498.618 189.195C498.403 189.195 498.188 189.146 497.973 189.047C497.23 188.7 496.916 187.807 497.263 187.064C497.924 185.693 498.519 184.272 499.064 182.851C499.362 182.091 500.221 181.694 500.981 181.992C501.742 182.289 502.138 183.148 501.841 183.908C501.262 185.395 500.634 186.882 499.94 188.336C499.709 188.881 499.18 189.195 498.618 189.195ZM502.75 177.614C502.634 177.614 502.518 177.597 502.386 177.564C501.593 177.366 501.097 176.556 501.295 175.763C501.659 174.293 501.973 172.773 502.221 171.286C502.353 170.476 503.113 169.931 503.923 170.063C504.733 170.195 505.279 170.955 505.146 171.765C504.882 173.335 504.568 174.921 504.188 176.474C504.022 177.168 503.427 177.614 502.75 177.614ZM504.469 165.437C504.452 165.437 504.436 165.437 504.403 165.437C503.576 165.404 502.948 164.71 502.981 163.901C503.014 163.091 503.031 162.265 503.031 161.456C503.031 160.745 503.014 160.035 502.998 159.324C502.965 158.498 503.609 157.821 504.436 157.788C505.262 157.755 505.94 158.399 505.973 159.225C506.006 159.969 506.006 160.712 506.006 161.472C506.006 162.315 505.989 163.174 505.956 164.033C505.923 164.809 505.262 165.437 504.469 165.437Z" fill="white"/>
</g>
<g opacity="0.64">
<path opacity="0.64" d="M408.291 212.854C407.994 212.854 407.696 212.771 407.432 212.59C406.771 212.127 406.109 211.631 405.465 211.152C404.82 210.657 404.688 209.715 405.184 209.071C405.68 208.426 406.622 208.294 407.266 208.79C407.878 209.252 408.506 209.715 409.134 210.161C409.812 210.64 409.96 211.565 409.498 212.226C409.217 212.639 408.754 212.854 408.291 212.854Z" fill="white"/>
</g>
</g>
<path d="M410.524 194.846C410.723 195.093 411.053 195.176 411.351 195.077L419.714 192.004C423.019 194.548 426.738 196.58 430.787 197.968L432.82 206.642C432.886 206.939 433.151 207.171 433.465 207.204L444.109 208.278C444.423 208.311 444.72 208.145 444.853 207.864L448.588 199.785C452.835 199.24 456.901 197.985 460.636 196.167L468.223 200.859C468.487 201.025 468.834 201.008 469.066 200.81L477.346 194.053C477.594 193.854 477.676 193.524 477.577 193.226L474.503 184.867C477.048 181.562 479.081 177.845 480.47 173.797L489.147 171.765C489.444 171.699 489.676 171.435 489.709 171.121L490.783 160.481C490.816 160.167 490.651 159.87 490.353 159.737L482.271 156.003C481.726 151.757 480.47 147.693 478.652 143.959L483.345 136.376C483.511 136.112 483.494 135.765 483.296 135.533L476.536 127.256C476.338 127.008 476.007 126.926 475.71 127.025L467.347 130.098C464.041 127.553 460.322 125.521 456.273 124.134L454.24 115.46C454.174 115.162 453.91 114.931 453.596 114.898L442.952 113.824C442.638 113.791 442.34 113.956 442.208 114.254L438.473 122.333C434.225 122.878 430.159 124.134 426.424 125.951L418.838 121.259C418.573 121.094 418.226 121.11 417.995 121.308L409.715 128.066C409.467 128.264 409.384 128.594 409.483 128.892L412.557 137.252C410.012 140.556 407.979 144.273 406.591 148.321L397.914 150.353C397.616 150.419 397.385 150.684 397.352 150.997L396.278 161.637C396.245 161.951 396.41 162.249 396.691 162.381L404.773 166.115C405.318 170.361 406.574 174.425 408.392 178.159L403.699 185.742C403.533 186.007 403.55 186.353 403.748 186.585L410.524 194.846Z" fill="#91B3FA"/>
<path opacity="0.56" d="M443.496 172.294C441.083 172.294 438.753 171.534 436.786 170.063C434.373 168.262 432.786 165.636 432.356 162.662C431.447 156.516 435.712 150.766 441.876 149.857C444.851 149.411 447.826 150.171 450.256 151.956C452.669 153.757 454.256 156.383 454.685 159.357C455.132 162.331 454.371 165.305 452.586 167.734C450.785 170.146 448.157 171.732 445.182 172.162C444.604 172.261 444.042 172.294 443.496 172.294ZM443.529 153.31C443.149 153.31 442.769 153.344 442.389 153.393C438.174 154.021 435.265 157.936 435.877 162.149C436.174 164.182 437.249 165.982 438.901 167.222C440.554 168.444 442.587 168.956 444.62 168.659C446.653 168.362 448.455 167.288 449.694 165.636C450.917 163.983 451.429 161.951 451.132 159.919C450.834 157.887 449.76 156.086 448.107 154.847C446.769 153.839 445.182 153.31 443.529 153.31Z" fill="white"/>
<path opacity="0.56" d="M443.727 187.262C442.835 187.262 441.926 187.213 441.017 187.13C439.149 186.932 437.298 186.552 435.513 185.974C435.265 185.891 435.1 185.66 435.1 185.412C435.1 185.346 435.116 185.296 435.133 185.23C435.232 184.916 435.563 184.751 435.877 184.85C437.579 185.395 439.348 185.775 441.133 185.957C447.843 186.634 454.404 184.668 459.61 180.406C464.833 176.143 468.073 170.113 468.75 163.422C468.833 162.563 468.882 161.703 468.882 160.861C468.882 148.106 459.181 137.119 446.206 135.814C432.373 134.41 419.977 144.521 418.589 158.35C418.506 159.209 418.457 160.051 418.457 160.91C418.457 164.595 419.266 168.246 420.836 171.583C420.87 171.666 420.886 171.748 420.886 171.831C420.886 172.062 420.754 172.261 420.539 172.376C420.241 172.508 419.894 172.393 419.746 172.095C418.093 168.593 417.25 164.776 417.25 160.91C417.25 160.018 417.3 159.126 417.382 158.234C418.853 143.761 431.827 133.171 446.306 134.641C459.891 136.012 470.039 147.511 470.056 160.877C470.056 161.769 470.006 162.662 469.924 163.554C469.213 170.575 465.808 176.887 460.354 181.347C455.611 185.197 449.793 187.262 443.727 187.262Z" fill="white"/>
<g clip-path="url(#clip1_537_1977)">
<path d="M445.06 548.375C444.336 549.202 444.243 550.128 444.602 551.114C444.602 551.121 444.602 551.121 444.608 551.128C445.272 552.954 447.462 554.992 450.003 557.024C450.328 557.288 450.613 557.52 450.866 557.745C450.932 557.804 450.998 557.857 451.058 557.917C451.111 557.963 451.157 558.01 451.211 558.049C453.579 560.226 452.69 560.729 456.943 565.15C461.8 570.185 465.138 570.278 466.094 569.821C466.896 569.431 465.264 566.758 463.453 563.753C463.366 563.608 463.28 563.462 463.187 563.317C462.948 562.92 462.703 562.509 462.464 562.112C460.341 558.499 460.885 556.805 461.389 551.425C461.8 547.051 468.21 527.008 468.21 527.008L458.907 525.406C458.907 525.406 456.107 541.367 453.015 543.829C451.363 545.139 449.519 545.159 447.933 546.125C447.82 546.191 447.714 546.264 447.601 546.33C446.705 546.932 445.783 547.548 445.06 548.375Z" fill="#F0AA3D"/>
<path d="M445.06 548.375C444.336 549.202 444.243 550.128 444.602 551.114C444.602 551.121 444.602 551.121 444.608 551.128C445.418 552.954 447.554 554.979 450.01 557.01C450.328 557.275 450.613 557.52 450.866 557.751C450.932 557.811 450.998 557.864 451.058 557.924C451.111 557.97 451.157 558.016 451.211 558.056C453.579 560.233 452.69 560.736 456.943 565.156C461.8 570.192 465.138 570.285 466.094 569.828C466.896 569.438 465.264 566.764 463.453 563.76C462.51 563.416 458.118 561.636 454.8 557.401C451.874 553.682 449.93 548.898 447.939 546.132C447.827 546.198 447.72 546.271 447.608 546.337C446.705 546.932 445.783 547.548 445.06 548.375Z" fill="#1D2127"/>
<path d="M520.078 542.578C520.655 545.443 524.749 544.967 529.321 543.849C533.892 542.737 532.804 544.06 539.313 543.339C545.823 542.618 547.793 540.203 547.992 539.236C548.171 538.383 544.953 538.078 541.503 537.681C541.072 537.635 540.634 537.582 540.196 537.523C536.301 537.033 533.448 534.532 529.911 532.467C526.56 530.515 521.557 522.574 521.557 522.574L512.633 523.282C512.633 523.282 517.317 530.376 519.129 533.46C520.197 535.273 520.137 537.675 520.005 539.528C519.938 540.54 519.872 541.572 520.078 542.578Z" fill="#F0AA3D"/>
<path d="M529.324 543.849C533.895 542.737 532.807 544.06 539.316 543.339C545.826 542.618 547.796 540.202 547.995 539.236C548.175 538.383 544.956 538.078 541.506 537.681L541.473 537.747C541.473 537.747 537.571 540.507 532.15 540.639C527.731 540.745 523.06 539.488 520.008 539.534C519.941 540.54 519.875 541.572 520.074 542.578C520.658 545.443 524.752 544.967 529.324 543.849Z" fill="#1D2127"/>
<path d="M485.867 485.656L477.52 508.049L466.624 537.291C466.624 537.291 463.665 537.575 460.838 536.762C458.231 536.007 455.238 534.042 455.238 534.042C455.238 534.042 458.264 502.643 463.904 484.624C465.35 479.999 466.969 476.253 468.761 474.149C477.52 463.839 485.867 485.656 485.867 485.656Z" fill="#1D2127"/>
<path d="M477.391 450.089C471.923 448.328 456.33 450.592 440.664 453.649L437.386 448.256L403.553 445.622C403.553 445.622 392.386 470.311 398.504 486.047C399.399 488.356 401.184 489.845 404.23 489.891H404.721C404.721 489.891 424.859 489.878 431.395 489.878C448.222 489.878 467 478.344 469.435 477.861C473.41 477.067 475.002 485.001 478.983 493.332C482.958 501.664 516.366 530.217 516.366 530.217C516.366 530.217 521.502 530.27 523.625 529.476C525.908 528.622 526.737 527.517 526.737 527.517C526.737 527.517 489.719 454.059 477.391 450.089Z" fill="#4D4548"/>
<path d="M426.171 345.536C421.426 344.318 414.944 345.529 413.862 345.635C400.996 346.905 396.67 361.225 398.621 372.336C400.419 382.592 395.204 385.424 389.159 393.524C377.043 409.763 384.959 423.454 394.52 426.987C400.26 429.105 408.222 423.765 408.222 423.765C408.368 423.824 433.251 407.506 443.456 398.308C460.442 391.678 438.254 348.639 426.171 345.536Z" fill="#1D2127"/>
<path d="M428.075 392.505C428.413 393.696 422.78 395.88 418.487 395.073C414.446 394.318 409.907 389.6 410.843 389.157C412.389 388.422 413.43 386.603 412.588 376.736L413.357 376.822L426.296 378.298C426.296 378.298 426.336 382.315 426.635 386.08C426.88 389.25 427.524 390.566 428.075 392.505Z" fill="#F0AA3D"/>
<path d="M426.29 378.305C426.29 378.305 426.33 382.321 426.629 386.087C419.489 386.47 415.19 380.296 413.352 376.829L426.29 378.305Z" fill="#F0AA3D"/>
<path d="M428.964 381.673C428.964 381.673 412.13 383.327 411.261 372.859C410.385 362.39 407.631 355.548 418.341 354.052C429.05 352.55 431.472 356.375 432.62 359.796C433.761 363.217 433.323 380.971 428.964 381.673Z" fill="#F0AA3D"/>
<path d="M427.16 352.398C427.16 352.398 425.044 365.189 415.456 368.227C408.462 370.443 405.297 368.981 405.297 368.981C405.297 368.981 408.661 364.528 409.862 358.34C410.214 356.514 411.514 355.012 413.286 354.436C418.249 352.802 424.274 348.342 427.16 352.398Z" fill="#1D2127"/>
<path d="M423.988 355.124C423.988 355.124 427.16 355.832 429.973 359.909C431.513 362.139 433.291 367.763 432.986 370.251C432.986 370.251 435.932 358.413 431.639 354.006C427.08 349.348 423.988 355.124 423.988 355.124Z" fill="#1D2127"/>
<path d="M397.763 426.902C398.062 428.172 398.321 429.344 398.526 430.422C398.872 432.163 399.104 433.665 399.27 434.988C399.781 439.117 399.628 441.566 399.98 444.239C400.172 445.735 400.524 447.303 401.24 449.275C401.937 451.194 420.231 452.901 430.635 452.213C433.939 452.001 436.454 451.531 437.35 450.764C441.059 447.548 440.694 454.621 441.198 420.781C441.444 404.277 427.151 389.574 427.151 389.574C427.151 389.574 426.01 396.628 411.837 388.231C411.339 387.946 405.759 396.184 400.384 406.335C394.466 417.552 396.091 419.921 397.763 426.902Z" fill="#8791DF"/>
<path d="M477.527 508.049L466.632 537.291C466.632 537.291 463.673 537.575 460.846 536.762C458.239 536.007 455.246 534.042 455.246 534.042C455.246 534.042 458.272 502.643 463.912 484.624L477.527 508.049Z" fill="#4D4548"/>
<path d="M427.16 389.574C427.16 389.574 441.745 392.042 443.456 398.302C445.168 404.562 456.999 439.58 456.999 439.58C456.999 439.58 447.829 442.697 444.405 439.283C440.981 435.868 432.488 407.593 432.488 407.593L427.16 389.574Z" fill="#8791DF"/>
<path d="M425.082 375.499C425.082 375.499 425.785 377.219 427.65 377.219C429.514 377.219 430.019 376.942 430.37 376.544C430.722 376.154 431.074 375.393 431.074 375.393C431.074 375.393 427.982 374.784 425.082 375.499Z" fill="white"/>
<path d="M399.27 434.988C399.78 439.117 399.628 441.566 399.98 444.239C413.224 444.279 430.927 434.042 430.927 434.042L399.27 434.988Z" fill="#454F8B"/>
<path d="M430.928 425.386C430.928 425.386 410.299 424.771 406.822 413.078C403 400.234 398.727 418.359 398.727 418.359L401.002 429.926H423.635L430.928 425.386Z" fill="#454F8B"/>
<path d="M466.886 393.657L465.771 390.904C464.577 387.953 461.704 386.02 458.512 386.02H437.949V399.03V454.582H523.014V399.03H474.875C471.365 399.03 468.2 396.906 466.886 393.657Z" fill="#F3CBB2"/>
<path d="M450.781 427.716V422.773L468.166 415.176V420.225L456.03 425.201L468.166 430.177V435.299L450.781 427.716Z" fill="white"/>
<path d="M486.228 409.267H490.859L474.948 442.432H470.316L486.228 409.267Z" fill="white"/>
<path d="M510.181 422.773V427.716L492.797 435.306V430.257L504.933 425.281L492.797 420.304V415.183L510.181 422.773Z" fill="white"/>
<path d="M430.922 428.093L432.415 425.757C432.415 425.757 433.596 425.373 435.255 424.215C437.225 422.832 436.967 420.768 437.949 420.986L437.962 425.525L437.856 425.539C442.082 426.664 447.026 425.439 447.125 426.492C447.397 429.377 445.161 430.68 443.283 431.58C441.85 432.275 440.218 433.314 437.624 432.507C435.726 431.918 432.74 431.322 432.74 431.322L430.922 428.093Z" fill="#F0AA3D"/>
<path d="M411.845 388.244C411.845 388.244 398.455 389.117 395.111 394.325C391.76 399.533 387.613 425.975 389.351 435.054C391.09 444.133 433.974 433.321 433.974 433.321L432.607 425.439C432.607 425.439 407.857 425.585 406.45 422.369C404.573 418.094 411.845 388.244 411.845 388.244Z" fill="#8791DF"/>
<path d="M476.477 399.003C476.364 399.348 478.487 402.848 481.533 402.239C483.431 401.862 485.892 397.792 483.729 396.893C480.113 395.397 476.782 398.077 476.477 399.003Z" fill="#F0AA3D"/>
</g>
</g>
<path d="M454.89 22.3847H343.187C337.021 22.3847 332 17.3795 332 11.1923C332 5.02363 337.003 0 343.187 0H454.89C461.055 0 466.076 5.00516 466.076 11.1923C466.076 17.3795 461.074 22.3847 454.89 22.3847Z" fill="#EEF7FF"/>
<path d="M348.282 22.3847H343.187C337.021 22.3847 332 17.3795 332 11.1923C332 5.02363 337.003 0 343.187 0H348.282C354.448 0 359.469 5.00516 359.469 11.1923C359.469 17.3795 354.466 22.3847 348.282 22.3847Z" fill="#4F7AC8"/>
<path d="M454.89 52.2679H343.187C337.021 52.2679 332 47.2627 332 41.0755C332 34.9068 337.003 29.8832 343.187 29.8832H454.89C461.055 29.8832 466.076 34.8883 466.076 41.0755C466.076 47.2627 461.074 52.2679 454.89 52.2679Z" fill="#EEF7FF"/>
<path d="M348.282 52.2679H343.187C337.021 52.2679 332 47.2627 332 41.0755C332 34.9068 337.003 29.8832 343.187 29.8832H348.282C354.448 29.8832 359.469 34.8883 359.469 41.0755C359.469 47.2627 354.466 52.2679 348.282 52.2679Z" fill="#4F7AC8"/>
<path d="M454.89 82.1695H343.187C337.021 82.1695 332 77.1644 332 70.9772C332 64.8085 337.003 59.7848 343.187 59.7848H454.89C461.055 59.7848 466.076 64.79 466.076 70.9772C466.076 77.1459 461.074 82.1695 454.89 82.1695Z" fill="#EEF7FF"/>
<path d="M348.282 82.1695H343.187C337.021 82.1695 332 77.1644 332 70.9772C332 64.8085 337.003 59.7848 343.187 59.7848H348.282C354.448 59.7848 359.469 64.79 359.469 70.9772C359.469 77.1459 354.466 82.1695 348.282 82.1695Z" fill="#4F7AC8"/>
<path d="M451.953 8.32962H366.852V14.6276H451.953V8.32962Z" fill="#DAE8F5"/>
<path d="M451.953 37.9358H366.852V44.2337H451.953V37.9358Z" fill="#DAE8F5"/>
<path d="M451.953 67.5234H366.852V73.8214H451.953V67.5234Z" fill="#DAE8F5"/>
<defs>
<linearGradient id="paint0_linear_537_1977" x1="370.499" y1="133.012" x2="370.499" y2="486.209" gradientUnits="userSpaceOnUse">
<stop stop-color="#E9EEF4"/>
<stop offset="1" stop-color="#C2CAF7"/>
</linearGradient>
<linearGradient id="paint1_linear_537_1977" x1="144.655" y1="434.276" x2="165.815" y2="434.276" gradientUnits="userSpaceOnUse">
<stop offset="0.0427" stop-color="#7B8BFF"/>
<stop offset="1" stop-color="#6F80FF"/>
</linearGradient>
<linearGradient id="paint2_linear_537_1977" x1="175.515" y1="452.375" x2="194.194" y2="414.774" gradientUnits="userSpaceOnUse">
<stop offset="0.0427" stop-color="#7B8BFF"/>
<stop offset="1" stop-color="#6F80FF"/>
</linearGradient>
<linearGradient id="paint3_linear_537_1977" x1="156.141" y1="442.172" x2="200.008" y2="442.172" gradientUnits="userSpaceOnUse">
<stop stop-color="#7B8BFF"/>
<stop offset="1" stop-color="#6F80FF"/>
</linearGradient>
<linearGradient id="paint4_linear_537_1977" x1="438.986" y1="76.5599" x2="339.833" y2="109.105" gradientUnits="userSpaceOnUse">
<stop stop-color="#E9EEF4"/>
<stop offset="1" stop-color="#C2CAF7"/>
</linearGradient>
<linearGradient id="paint5_linear_537_1977" x1="593.088" y1="453.211" x2="627.171" y2="453.211" gradientUnits="userSpaceOnUse">
<stop offset="0.0427" stop-color="#7B8BFF"/>
<stop offset="1" stop-color="#6F80FF"/>
</linearGradient>
<linearGradient id="paint6_linear_537_1977" x1="593.633" y1="454.648" x2="626.602" y2="454.648" gradientUnits="userSpaceOnUse">
<stop offset="0.0427" stop-color="#7B8BFF"/>
<stop offset="1" stop-color="#6F80FF"/>
</linearGradient>
<linearGradient id="paint7_linear_537_1977" x1="636.982" y1="465.004" x2="671.015" y2="465.004" gradientUnits="userSpaceOnUse">
<stop offset="0.0427" stop-color="#7B8BFF"/>
<stop offset="1" stop-color="#6F80FF"/>
</linearGradient>
<linearGradient id="paint8_linear_537_1977" x1="637.914" y1="466.45" x2="671.032" y2="466.45" gradientUnits="userSpaceOnUse">
<stop offset="0.0427" stop-color="#7B8BFF"/>
<stop offset="1" stop-color="#6F80FF"/>
</linearGradient>
<linearGradient id="paint9_linear_537_1977" x1="602.585" y1="420.107" x2="629.588" y2="420.107" gradientUnits="userSpaceOnUse">
<stop offset="0.0427" stop-color="#7B8BFF"/>
<stop offset="1" stop-color="#6F80FF"/>
</linearGradient>
<linearGradient id="paint10_linear_537_1977" x1="603.157" y1="420.456" x2="628.682" y2="420.456" gradientUnits="userSpaceOnUse">
<stop offset="0.0427" stop-color="#7B8BFF"/>
<stop offset="1" stop-color="#6F80FF"/>
</linearGradient>
<linearGradient id="paint11_linear_537_1977" x1="635.671" y1="431.473" x2="662.674" y2="431.473" gradientUnits="userSpaceOnUse">
<stop offset="0.0427" stop-color="#7B8BFF"/>
<stop offset="1" stop-color="#6F80FF"/>
</linearGradient>
<linearGradient id="paint12_linear_537_1977" x1="636.432" y1="431.805" x2="662.668" y2="431.805" gradientUnits="userSpaceOnUse">
<stop offset="0.0427" stop-color="#7B8BFF"/>
<stop offset="1" stop-color="#6F80FF"/>
</linearGradient>
<linearGradient id="paint13_linear_537_1977" x1="253.784" y1="301.016" x2="322.348" y2="301.016" gradientUnits="userSpaceOnUse">
<stop stop-color="#E9EEF4"/>
<stop offset="1" stop-color="#C2CAF7"/>
</linearGradient>
<linearGradient id="paint14_linear_537_1977" x1="341.097" y1="301.171" x2="396.157" y2="301.171" gradientUnits="userSpaceOnUse">
<stop stop-color="#E9EEF4"/>
<stop offset="1" stop-color="#C2CAF7"/>
</linearGradient>
<linearGradient id="paint15_linear_537_1977" x1="413.007" y1="301.168" x2="492.471" y2="301.168" gradientUnits="userSpaceOnUse">
<stop stop-color="#E9EEF4"/>
<stop offset="1" stop-color="#C2CAF7"/>
</linearGradient>
<linearGradient id="paint16_linear_537_1977" x1="87.2603" y1="106.522" x2="249.359" y2="106.522" gradientUnits="userSpaceOnUse">
<stop offset="0.0427" stop-color="#7B8BFF"/>
<stop offset="1" stop-color="#6F80FF"/>
</linearGradient>
<linearGradient id="paint17_linear_537_1977" x1="1.07845" y1="303.246" x2="112.257" y2="303.246" gradientUnits="userSpaceOnUse">
<stop offset="0.0427" stop-color="#7B8BFF"/>
<stop offset="1" stop-color="#6F80FF"/>
</linearGradient>
<linearGradient id="paint18_linear_537_1977" x1="298.624" y1="542.375" x2="273.615" y2="542.375" gradientUnits="userSpaceOnUse">
<stop offset="0.0327" stop-color="#214F95"/>
<stop offset="1" stop-color="#0E408C"/>
</linearGradient>
<linearGradient id="paint19_linear_537_1977" x1="561.909" y1="337.689" x2="561.909" y2="341.399" gradientUnits="userSpaceOnUse">
<stop stop-color="#3197FF"/>
<stop offset="1" stop-color="#55AEFF"/>
</linearGradient>
<linearGradient id="paint20_linear_537_1977" x1="595.486" y1="337.667" x2="595.486" y2="341.378" gradientUnits="userSpaceOnUse">
<stop stop-color="#3197FF"/>
<stop offset="1" stop-color="#55AEFF"/>
</linearGradient>
<clipPath id="clip0_537_1977">
<rect width="741" height="511" fill="white" transform="translate(0 41)"/>
</clipPath>
<clipPath id="clip1_537_1977">
<rect width="165" height="225" fill="white" transform="translate(383 345)"/>
</clipPath>
</defs>
</svg>
